<?xml version="1.0" encoding="utf-8"?>
<!-- Generator: Adobe Illustrator 26.1.0, SVG Export Plug-In . SVG Version: 6.00 Build 0)  -->
<svg version="1.1" id="Calque_1" xmlns="http://www.w3.org/2000/svg" xmlns:xlink="http://www.w3.org/1999/xlink" x="0px" y="0px"
	 viewBox="0 0 48 48" style="enable-background:new 0 0 48 48;" xml:space="preserve">
<style type="text/css">
	.st0{fill:none;}
	.st1{opacity:0.4;}
	.st2{fill:#020203;}
	.st3{fill:#CC1517;}
</style>
<g>
	<rect x="0.4" y="0.4" class="st0" width="47.2" height="47.2"/>
	<g class="st1">
		<path class="st2" d="M40.2,34.2C38.2,36,35.7,37,33,37h-0.2c0.6-1.2,0.9-2.6,0.9-4c0-5.4-4.4-9.8-9.8-9.8s-9.8,4.4-9.8,9.8
			c0,1.5,0.3,2.8,0.9,4h-3.8C2,36.4,2,23,11.2,22.3h0.1C5.1,4.7,31.7-2.3,34.7,16.1C43.3,17.2,46.7,28.6,40.2,34.2z"/>
	</g>
	<path class="st3" d="M23.9,23.2c-5.4,0-9.8,4.4-9.8,9.8c0,1.5,0.3,2.8,0.9,4c0.2,0.4,0.3,0.7,0.5,1c1.7,2.8,4.8,4.8,8.4,4.8
		s6.7-1.9,8.4-4.8c0.2-0.3,0.4-0.6,0.5-1c0.6-1.2,0.9-2.6,0.9-4C33.7,27.6,29.3,23.2,23.9,23.2z M26.9,36.2c-0.3,0.3-0.7,0.4-1,0.4
		c-0.4,0-0.8-0.1-1-0.4l-1-1l-1.1,1.1c-0.3,0.3-0.7,0.4-1,0.4s-0.8-0.1-1-0.4c-0.6-0.6-0.6-1.5,0-2.1l1.1-1.1l-1-1
		c-0.6-0.6-0.6-1.5,0-2.1s1.5-0.6,2.1,0l1,1l1-1c0.6-0.6,1.5-0.6,2.1,0s0.6,1.5,0,2.1l-1,1l1,1C27.4,34.7,27.4,35.6,26.9,36.2z"/>
</g>
</svg>
